<?xml version="1.0" standalone="no"?>
<!DOCTYPE svg PUBLIC "-//W3C//DTD SVG 20010904//EN"
 "http://www.w3.org/TR/2001/REC-SVG-20010904/DTD/svg10.dtd">
<svg version="1.0" xmlns="http://www.w3.org/2000/svg"
 width="766.000000pt" height="766.000000pt" viewBox="0 0 766.000000 766.000000"
 preserveAspectRatio="xMidYMid meet">
<metadata>
Created by potrace 1.11, written by Peter Selinger 2001-2013
</metadata>
<g transform="translate(0.000000,766.000000) scale(0.100000,-0.100000)"
fill="#000000" stroke="none">
<path d="M3525 7653 c-412 -33 -627 -95 -917 -266 -172 -101 -530 -439 -711
-672 -154 -198 -305 -456 -356 -612 -24 -71 -28 -197 -10 -284 7 -30 12 -67
13 -84 1 -30 0 -30 -59 -35 -76 -7 -98 -20 -131 -76 -59 -101 -37 -284 67
-551 80 -209 132 -408 159 -618 39 -306 69 -692 76 -985 3 -129 10 -260 15
-290 5 -30 28 -92 50 -138 22 -46 49 -120 59 -165 11 -45 26 -112 34 -149 8
-37 29 -100 47 -139 27 -63 33 -92 45 -228 14 -169 21 -200 81 -366 45 -125
80 -196 133 -275 51 -77 66 -121 90 -266 37 -220 97 -364 211 -504 33 -41 73
-100 89 -130 45 -87 148 -146 308 -176 214 -40 362 -108 482 -221 99 -93 118
-134 95 -208 -21 -71 -19 -123 8 -170 18 -32 28 -39 48 -37 43 4 261 118 385
199 65 44 137 90 159 103 61 36 288 200 395 284 52 42 148 117 212 166 160
124 201 172 497 579 226 310 247 348 292 520 20 76 28 90 86 155 107 119 114
135 123 294 9 149 9 150 47 300 l26 103 -22 92 c-19 81 -21 114 -19 272 l3
180 -69 205 c-92 273 -96 318 -38 458 45 109 66 192 81 327 29 245 101 378
362 666 222 246 356 421 366 482 10 63 -10 79 -222 183 -210 103 -265 145
-265 203 0 42 18 56 155 121 122 59 151 85 143 126 -5 27 -60 55 -152 76 -98
22 -277 109 -358 173 -96 75 -75 91 98 74 126 -12 162 -6 170 25 27 108 -333
565 -571 726 -191 129 -414 238 -665 325 -204 71 -326 124 -406 176 -42 27
-80 43 -120 49 -53 9 -521 11 -619 3z m287 -2062 c62 -40 171 -138 489 -442
378 -362 503 -466 634 -532 101 -51 134 -58 290 -64 l140 -6 -3 -476 c-3 -560
-14 -867 -36 -931 -8 -25 -26 -72 -39 -105 -14 -33 -30 -96 -36 -140 -6 -44
-16 -84 -21 -89 -13 -13 -111 44 -375 217 -460 302 -584 358 -800 360 -157 2
-201 -23 -244 -138 -52 -139 -13 -272 109 -372 36 -29 180 -135 320 -235 316
-225 484 -352 510 -385 19 -25 20 -27 3 -46 -43 -47 -161 -71 -275 -55 -154
21 -310 86 -540 224 -58 35 -136 78 -173 95 l-66 31 -45 -17 c-24 -9 -74 -41
-112 -71 -120 -97 -242 -173 -307 -193 -206 -64 -489 -49 -573 30 -13 11 -20
24 -17 29 3 4 47 28 97 53 113 55 341 204 423 276 83 73 343 245 402 266 122
42 138 64 138 183 0 73 -4 96 -26 142 -64 135 -149 180 -342 180 -258 -1 -545
-141 -880 -432 -99 -86 -208 -158 -238 -158 -50 0 -118 115 -202 340 -37 100
-97 329 -116 440 -5 36 -13 81 -16 100 -3 19 -10 366 -15 770 -5 404 -14 777
-20 829 -9 83 -9 97 7 129 25 51 70 73 166 83 45 4 125 22 177 39 87 29 110
32 300 41 113 4 392 9 620 9 420 1 538 8 588 34 39 21 52 20 104 -13z"/>
</g>
</svg>
