<?xml version="1.0" encoding="UTF-8" standalone="no"?>
<!-- Created with Inkscape (http://www.inkscape.org/) -->

<svg
   xmlns:dc="http://purl.org/dc/elements/1.1/"
   xmlns:cc="http://creativecommons.org/ns#"
   xmlns:rdf="http://www.w3.org/1999/02/22-rdf-syntax-ns#"
   xmlns:svg="http://www.w3.org/2000/svg"
   xmlns="http://www.w3.org/2000/svg"
   xmlns:sodipodi="http://sodipodi.sourceforge.net/DTD/sodipodi-0.dtd"
   xmlns:inkscape="http://www.inkscape.org/namespaces/inkscape"
   width="141.60686mm"
   height="232.97556mm"
   viewBox="0 0 141.60686 232.97556"
   version="1.1"
   id="svg6120"
   inkscape:version="0.92.2 5c3e80d, 2017-08-06"
   sodipodi:docname="face-logo-think.svg">
  <defs
     id="defs6114" />
  <sodipodi:namedview
     id="base"
     pagecolor="#ffffff"
     bordercolor="#666666"
     borderopacity="1.0"
     inkscape:pageopacity="0.0"
     inkscape:pageshadow="2"
     inkscape:zoom="0.57626953"
     inkscape:cx="179.55947"
     inkscape:cy="489.34938"
     inkscape:document-units="mm"
     inkscape:current-layer="layer1"
     showgrid="false"
     inkscape:window-width="1920"
     inkscape:window-height="1029"
     inkscape:window-x="0"
     inkscape:window-y="25"
     inkscape:window-maximized="1" />
  <metadata
     id="metadata6117">
    <rdf:RDF>
      <cc:Work
         rdf:about="">
        <dc:format>image/svg+xml</dc:format>
        <dc:type
           rdf:resource="http://purl.org/dc/dcmitype/StillImage" />
        <dc:title></dc:title>
      </cc:Work>
    </rdf:RDF>
  </metadata>
  <g
     inkscape:label="Layer 1"
     inkscape:groupmode="layer"
     id="layer1"
     transform="translate(-16.661072,-42.742429)">
    <g
       transform="translate(-77.822742,6.1982715)"
       id="layer1-6"
       inkscape:label="Layer 1">
      <g
         id="g4687"
         transform="translate(56.607145,1.0723417)">
        <path
           style="fill:#0e0e0e;fill-opacity:1;stroke-width:0.69025081"
           d="m 96.313715,249.74603 c -0.61378,-1.34715 -0.61628,-2.2833 -0.0104,-3.88869 0.9492,-2.51469 0.5286,-3.45155 -3.06596,-6.82939 -2.96375,-2.78506 -8.5399,-5.13561 -13.62437,-5.74316 -3.31617,-0.39628 -8.00063,-3.10521 -8.00063,-4.62659 0,-0.38713 -1.25252,-2.18928 -2.78338,-4.00478 -3.2414,-3.8441 -5.25977,-8.88902 -5.92951,-14.8207 -0.34392,-3.04604 -0.99691,-4.88372 -2.35579,-6.62996 -1.03398,-1.32872 -2.36555,-3.81363 -2.95901,-5.52202 -0.59348,-1.70836 -1.54906,-4.34856 -2.12352,-5.86713 -0.57447,-1.51854 -1.05812,-4.55122 -1.07476,-6.73929 -0.0156,-2.18807 -0.30469,-4.51767 -0.64002,-5.1769 -1.47021,-2.89008 -2.0862,-4.87135 -2.51593,-8.09223 -0.25253,-1.89332 -1.20574,-4.71612 -2.11807,-6.27288 -1.49154,-2.54514 -1.6631,-3.6595 -1.70142,-11.05287 -0.0417,-8.04135 -1.33439,-23.43469 -2.66134,-31.6909 -0.80824,-5.02866 -2.2169,-10.10318 -3.83223,-13.805 -2.90401,-6.65513 -3.83022,-12.905502 -2.33372,-15.748602 1.05529,-2.00493 1.92646,-2.51986 4.28457,-2.53248 1.60766,-0.008 1.87919,-0.23375 1.4695,-1.21851 -1.00129,-2.40669 -1.18506,-7.787926 -0.34152,-10.00065 3.83118,-10.049992 11.51716,-20.565241 21.40063,-29.278367 2.08623,-1.839194 4.56471,-4.03984 5.50775,-4.890368 0.94304,-0.850502 4.20594,-2.797335 7.25088,-4.326288 8.08769,-4.061075 15.87578,-5.516459 29.519865,-5.516459 10.44872,0 11.06991,0.07696 13.16349,1.631532 2.05421,1.5253 7.23791,3.662447 15.27909,6.299262 3.70429,1.214693 10.77101,4.914446 15.28688,8.003396 6.75323,4.619337 16.90611,17.689484 15.85963,20.416616 -0.3453,0.899835 -1.16789,1.001057 -4.89289,0.602142 -2.52044,-0.269908 -4.47779,-0.210532 -4.47779,0.13592 0,1.586242 7.96714,6.219797 11.72888,6.821313 5.61901,0.898531 6.15392,3.373833 1.17266,5.426641 -4.58667,1.89019 -4.95149,2.14656 -5.17449,3.63622 -0.21888,1.46245 1.7364,3.15323 5.73283,4.95718 5.92542,2.67464 6.96624,3.23864 7.69188,4.16809 0.52727,0.67532 0.57843,1.56589 0.15392,2.682102 -0.66486,1.74875 -5.59759,7.92539 -10.55605,13.21799 -6.9983,7.46995 -9.27718,11.86051 -9.85237,18.98189 -0.24967,3.09159 -1.02016,6.13906 -2.13924,8.46155 -1.97279,4.09425 -1.88388,4.92599 1.56715,14.66185 1.57413,4.44085 1.77042,5.83152 1.38059,9.78116 -0.30461,3.08601 -0.16201,5.41286 0.43228,7.05644 0.75499,2.08795 0.71333,3.00221 -0.28061,6.15528 -0.642,2.03674 -1.16729,5.59332 -1.16729,7.90356 0,3.56193 -0.28791,4.5495 -1.89395,6.49672 -1.04168,1.26296 -2.28074,2.6069 -2.75346,2.98653 -0.47271,0.37964 -1.15946,2.2893 -1.52608,4.24369 -0.44642,2.37975 -1.64588,4.90218 -3.63137,7.63673 -1.63062,2.24581 -4.05192,5.58883 -5.38067,7.42894 -6.83316,9.46303 -8.7898,11.7356 -12.3467,14.34035 -2.13081,1.56039 -4.02948,3.02725 -4.21932,3.2597 -0.88828,1.08775 -11.66074,8.99016 -13.80516,10.12716 -1.32883,0.70454 -3.51907,2.12496 -4.86723,3.15652 -2.07294,1.58611 -9.612195,5.37208 -10.697785,5.37208 -0.18705,0 -0.70401,-0.79843 -1.14866,-1.77428 z m 37.593905,-59.764 c 0.66436,-0.34807 1.20794,-0.91175 1.20794,-1.2526 0,-0.86313 -4.36229,-4.26503 -14.84039,-11.5732 -4.93532,-3.44221 -9.62914,-6.9882 -10.43073,-7.87998 -2.20312,-2.45096 -2.90628,-5.33444 -2.03292,-8.33638 1.23173,-4.2337 2.51686,-5.03589 7.85837,-4.90527 5.60433,0.13697 10.31458,2.39472 23.45365,11.24155 4.61631,3.10828 8.65834,5.4876 8.98225,5.28743 0.32392,-0.2001 0.63103,-1.48408 0.6825,-2.85306 0.0514,-1.36898 0.72129,-3.63401 1.48849,-5.03338 1.29314,-2.35869 1.40785,-3.9668 1.57241,-22.04442 l 0.1774,-19.50011 -3.98411,5.2e-4 c -7.29729,6.8e-4 -11.19704,-2.42383 -24.09172,-14.97991 -6.19765,-6.03493 -12.62291,-12.019932 -14.27832,-13.300002 -2.74338,-2.12136 -3.1406,-2.24113 -4.48665,-1.35301 -1.17887,0.77782 -5.306027,0.97982 -20.458685,1.00129 -16.88592,0.0235 -19.32488,0.16853 -22.08804,1.30947 -1.70836,0.70545 -4.10649,1.23087 -5.32917,1.16763 -3.25119,-0.16827 -5.35547,2.12278 -4.59424,5.001762 0.31577,1.19426 0.60238,12.11101 0.63692,24.25943 0.0642,22.5402 0.0261,22.10257 2.93949,33.47717 0.74015,2.88929 3.45802,9.39259 4.83185,11.5617 0.54104,0.85418 1.44359,1.55305 2.00569,1.55305 1.30407,0 4.61148,-2.25944 8.13762,-5.55924 3.37187,-3.15545 9.59298,-7.14241 14.59988,-9.3567 4.62148,-2.04383 12.38374,-2.30202 15.412915,-0.51263 4.95376,2.92626 5.50688,12.66758 0.71928,12.66758 -1.15816,0 -10.123005,5.86528 -12.304085,8.04999 -1.85808,1.86116 -11.23912,7.81423 -13.01714,8.26047 -2.32605,0.5838 -1.99126,1.54907 0.96574,2.78458 4.05113,1.69268 12.89616,1.00562 16.81038,-1.30577 1.67341,-0.98814 3.66378,-2.37739 4.42305,-3.08718 2.423385,-2.26542 4.754965,-3.65808 6.124335,-3.65808 0.73178,0 3.69115,1.50515 6.57637,3.34475 9.49502,6.05406 17.52471,8.03995 22.32957,5.52256 z"
           id="path4569"
           inkscape:connector-curvature="0" />
        <path
           style="fill:#ddb9a6;fill-opacity:1;stroke:none;stroke-width:0.17981973;stroke-linejoin:round;stroke-miterlimit:4;stroke-dasharray:none;stroke-opacity:1;paint-order:normal"
           d="m 126.88728,190.83773 c -4.15598,-0.68088 -9.12196,-2.68589 -13.91413,-5.61782 -4.64208,-2.84009 -7.16351,-4.13427 -8.05481,-4.13427 -1.1847,0 -3.34717,1.23013 -5.528065,3.1447 -1.55384,1.3641 -4.59093,3.41695 -6.00113,4.05638 -3.4768,1.57645 -9.88078,2.18817 -13.94376,1.33193 -1.46368,-0.30847 -3.3017,-1.15717 -3.90948,-1.80517 l -0.44506,-0.47455 0.42667,-0.34611 c 0.23479,-0.19045 0.63861,-0.39717 0.89767,-0.45955 1.78522,-0.43001 10.24341,-5.69745 12.97146,-8.07814 2.40363,-2.09759 6.41765,-4.93583 9.84363,-6.96031 1.712325,-1.01183 2.266795,-1.24255 3.474395,-1.44562 0.4513,-0.0759 0.91004,-0.34163 1.35114,-0.78275 2.12188,-2.12186 1.54904,-7.49502 -1.12495,-10.55178 -1.61802,-1.84963 -3.587205,-2.46794 -7.911405,-2.48414 -4.44077,-0.0157 -7.37741,0.66373 -11.24776,2.6059 -4.66614,2.34155 -9.53467,5.64035 -13.09425,8.87234 -2.77385,2.51856 -5.6666,4.55986 -7.00628,4.94408 -1.47359,0.42263 -2.6916,-1.18508 -4.96871,-6.55858 -1.46754,-3.46305 -2.02904,-5.17081 -3.06954,-9.33593 -1.98265,-7.93642 -1.97555,-7.84415 -2.1757,-28.3172 -0.16592,-16.97541 -0.37789,-24.91369 -0.71221,-26.67655 -0.51365,-2.708372 1.31756,-4.702302 4.31856,-4.702302 1.38127,0 3.33664,-0.39484 5.19039,-1.04806 3.52405,-1.24185 4.15277,-1.2824 22.71144,-1.46426 16.741455,-0.16409 18.526355,-0.25253 20.174715,-1.00014 0.53035,-0.24053 1.1878,-0.43734 1.46102,-0.43734 1.20911,0 5.00643,3.26796 15.24512,13.119862 11.86806,11.41971 15.26813,14.17983 19.45795,15.79561 2.11419,0.8153 3.58061,1.0514 7.35623,1.18445 l 3.37062,0.1187 -0.0924,2.79949 c -0.0506,1.53972 -0.13696,8.61646 -0.19122,15.72613 -0.13488,17.58907 -0.30448,20.30175 -1.40613,22.48862 -0.81607,1.62 -1.35651,3.44127 -1.62212,5.46647 -0.3344,2.54999 -0.39393,2.71325 -0.93943,2.57634 -0.77508,-0.19462 -3.86307,-2.0761 -10.03051,-6.11176 -7.17598,-4.6956 -9.64429,-6.19366 -12.56761,-7.62742 -3.96421,-1.9443 -6.84542,-2.6964 -10.33526,-2.69786 -4.3464,-0.002 -5.80484,0.92246 -6.92601,4.38935 -1.16314,3.59665 -0.25853,7.05519 2.49216,9.5283 1.32478,1.19111 5.59574,4.35613 11.62723,8.61644 8.81717,6.22799 12.64603,9.22673 12.85768,10.07008 0.0624,0.24862 0.0104,0.55487 -0.12417,0.71555 -0.39143,0.47162 -1.93836,1.16442 -3.19459,1.43071 -1.10319,0.23375 -3.64499,0.30758 -4.69149,0.13618 z"
           id="path4615"
           inkscape:connector-curvature="0" />
      </g>
    </g>
    <g
       transform="matrix(4.0264951,0,0,4.0264951,-38.086715,-376.30381)"
       id="layer1-5"
       inkscape:label="Layer 1">
      <path
         inkscape:connector-curvature="0"
         id="path5401"
         d="m 21.671485,161.16722 c -1.247655,-0.8408 -1.676406,-1.73238 -1.532644,-3.18714 0.09606,-0.97212 0.355953,-1.44068 1.374778,-2.47861 0.690974,-0.70394 1.601425,-2.02346 2.023224,-2.93229 0.720742,-1.55295 0.763628,-1.85549 0.712429,-5.02608 -0.05205,-3.22372 -0.02965,-3.37368 0.504142,-3.37368 1.369607,0 2.169504,1.29557 2.173284,3.52001 9.79e-4,0.59027 0.161566,0.96512 0.462939,1.08076 0.291458,0.11184 2.094818,-0.65211 4.896173,-2.07416 4.429707,-2.24864 5.726425,-2.63832 6.042083,-1.81573 0.302657,0.78871 -0.282822,1.35675 -4.166948,4.04283 -1.075212,0.74357 -1.131158,1.02973 -0.201318,1.02973 0.823162,0 1.17522,0.68615 0.723326,1.40975 -0.447209,0.7161 -0.410325,0.79347 0.378282,0.79347 0.823161,0 1.175219,0.68615 0.723326,1.40975 -0.43118,0.69043 -0.412852,0.7418 0.300788,0.84316 0.393118,0.0558 0.651145,0.30933 0.705792,0.69341 0.11336,0.79673 -1.478339,1.95484 -4.299756,3.12848 -1.166344,0.48516 -2.740281,1.15995 -3.497637,1.49952 -2.716048,1.21776 -5.062805,2.06474 -5.720835,2.06474 -0.36831,0 -1.088953,-0.28256 -1.601428,-0.62792 z"
         style="fill:#ddb9a6;fill-opacity:1;stroke:#0e0e0e;stroke-width:0.27540195;stroke-opacity:1" />
    </g>
    <g
       transform="matrix(2.6999566,1.0060437,-1.0060437,2.6999566,-2.6152838,-339.81573)"
       id="layer1-56"
       inkscape:label="Layer 1">
      <path
         inkscape:connector-curvature="0"
         id="path6070"
         d="m 71.288885,146.16266 c -0.332474,-0.86641 0.108297,-1.2461 2.215479,-1.90846 1.700464,-0.53449 4.935733,-2.11789 6.269589,-3.06841 0.926913,-0.66054 2.096111,-0.1594 2.096111,0.89836 0,1.27852 -2.626493,3.12527 -5.667219,3.98476 -3.327967,0.94069 -4.579797,0.96457 -4.91396,0.0938 z m 16.346347,-6.66364 c -0.82225,-1.33042 3.933092,-5.09495 6.851452,-5.42387 l 1.96973,-0.22203 -0.006,1.66459 c -0.005,1.17184 -0.12253,1.48131 -0.39829,1.04545 -0.50387,-0.79638 -1.95613,-0.17896 -4.51936,1.92141 -1.82229,1.49323 -3.354542,1.89211 -3.896962,1.01445 z"
         style="fill:#0e0e0e;fill-opacity:1;stroke-width:0.42901018" />
    </g>
  </g>
</svg>
